/* XPM */
static char *newsfld_xpm[] = {
/* columns rows colors chars-per-pixel */
"16 16 6 1",
"  c black",
". c #440000",
"X c #996600",
"o c #996633",
"O c #cc9900",
"+ c none",
/* pixels */
"++++++++++++++++",
"++++++++++++++++",
"++++++++++++++++",
"+++          +++",
"++  OO    OO  ++",
"+ O XXXXXXXX O +",
" O            O ",
"      OOOO      ",
" XoXoo    oXoXo ",
" ooooooooooooo. ",
" X............. ",
"                ",
"++++++++++++++++",
"++++++++++++++++",
"++++++++++++++++",
"++++++++++++++++"
};
