/* XPM */
static char *newscat_xpm[] = {
/* columns rows colors chars-per-pixel */
"16 16 10 1",
"  c black",
". c #444444",
"X c #0000dd",
"o c #339966",
"O c #dd0000",
"+ c #888888",
"@ c gray80",
"# c #dddddd",
"$ c #eeeeee",
"% c none",
/* pixels */
"%%%%%%%%%%%%%%%%",
"%%%%%%..%%%%%%%%",
"%%%%%.%$..%%%%%%",
"%%%%.$ +$%..%%%%",
"%%%.$%$ . $$..%%",
"%%.$  $$$ . %$..",
"%.%OXX @%$$ .$$ ",
".#OOOo.$  %$$% +",
".+#Oo.@%$. $$ ..",
" ++##%$ .$%@ .@ ",
" ..++#$% .$ .@ %",
"%  ..++##$ .@ %%",
"%%%  ..++ .@ %%%",
"%%%%%  .. @ %%%%",
"%%%%%%%    %%%%%",
"%%%%%%%%%%%%%%%%"
};
